<svg xmlns="http://www.w3.org/2000/svg" width="256" height="256"><path d="M109.86 85.56V44.11a2.598 2.598 0 0 0-2.588-2.596 2.594 2.594 0 0 0-2.59 2.595c0 26.792-10.433 51.982-29.377 70.95l-59.67 59.65c-.8.813-.993 2.03-.474 3.046a126.928 126.928 0 0 0 9.403 15.387 2.627 2.627 0 0 0 1.892 1.077l.21.016c.696 0 1.348-.28 1.836-.768l62.595-62.612c12.108-12.1 18.766-28.19 18.766-45.295zm81.632-75.83c-.768-.47-1.775-.47-2.59 0a2.607 2.607 0 0 0-1.294 2.243v115.062c0 17.104 6.675 33.188 18.767 45.288l21.13 21.146a2.6 2.6 0 0 0 1.838.767l.225-.016a2.702 2.702 0 0 0 1.907-1.076C246.86 171.48 255 146.062 255 119.617c0-45.104-24.316-87.212-63.508-109.888zM68.384 44.11V11.973a2.6 2.6 0 0 0-1.287-2.244 2.577 2.577 0 0 0-2.597 0C25.332 32.405 1 74.513 1 119.617c0 3.613.193 7.48.597 11.822.1.99.76 1.844 1.705 2.208.28.084.582.14.884.14a2.59 2.59 0 0 0 1.822-.752l43.633-43.64C61.733 77.3 68.385 61.21 68.385 44.108zm112.334 153.894c-18.952-18.96-29.4-44.168-29.4-70.97V85.562a2.59 2.59 0 0 0-2.59-2.598 2.61 2.61 0 0 0-2.59 2.6c0 26.804-10.433 52.02-29.385 70.972L54.16 219.12a2.587 2.587 0 0 0-.753 2.045c.062.768.45 1.465 1.078 1.908C76.135 238.48 101.56 246.62 128 246.62s51.873-8.14 73.522-23.547a2.514 2.514 0 0 0 1.062-1.908c.085-.768-.194-1.496-.722-2.045l-21.144-21.116z"/></svg>