<?xml version="1.0" encoding="utf-8"?>
<!-- Generator: Adobe Illustrator 16.0.3, SVG Export Plug-In . SVG Version: 6.00 Build 0)  -->
<!DOCTYPE svg PUBLIC "-//W3C//DTD SVG 1.1//EN" "http://www.w3.org/Graphics/SVG/1.1/DTD/svg11.dtd">
<svg version="1.1" xmlns="http://www.w3.org/2000/svg" xmlns:xlink="http://www.w3.org/1999/xlink" x="0px" y="0px"
	 width="301.333px" height="65.833px" viewBox="0 0 301.333 65.833" enable-background="new 0 0 301.333 65.833"
	 xml:space="preserve">
<g id="Layer_1">
	<path display="none" fill="#FDFDFE" d="M99.917-212.668"/>
	<g>
		<path fill-rule="evenodd" clip-rule="evenodd" d="M70.974,13.535c-4.342-7.218-14.064-3.088-11.986,5.244
			c2.787,11.18,16.399,13.857,21.416,23.824c2.754,5.473,1.029,10.945-3.186,13.347c-4.323,2.463-11.629,3.438-16.117,0.146
			c-2.25-1.65-2.063-2.896-3.25,0.209c-0.382,0.998-1.017,2.096-2.254,1.044c-1.948-1.655-1.908-6.907,1.374-9.142
			c2.092-1.116,3.511-0.527,5.448,1.389c4.701,3.863,10.684,2.715,12.232-0.483c0.996-2.057-0.008-5.273-2.006-7.519
			c-2.891-3.248-7.448-6.047-11.199-10.429c-4.947-5.779-8.721-12.247-6.254-18.619c2.146-5.545,8.313-10.651,15.59-6.969
			c4.301,2.177,8.498,7.146,6.092,12.078c-1.659,3.402-6.794,4.494-9.167,0.975C66.275,16.508,72.175,15.498,70.974,13.535
			L70.974,13.535z"/>
		<path fill-rule="evenodd" clip-rule="evenodd" d="M89.965,25.174c0.196,6.149-6.787,5.673-6.976-0.23
			c-0.086-2.662,2.084-3.391,3.512-3.293c0.62,0.042,1.503,0.402,2.223,1.038C89.399,23.285,89.932,24.126,89.965,25.174
			L89.965,25.174z"/>
		<path fill-rule="evenodd" clip-rule="evenodd" d="M83.529,38.906c-0.101,0.063-0.2,0.121-0.296,0.175
			c-2.966,1.655-2.072-1.724-0.476-3.714c1.611-2.009,2.964-2.757,4.216-2.583c1.119,0.155,1.973,0.815,2.172,1.779
			c0.807,3.9-3.585,14.836,1.061,17.719c0.936,0.579,1.979,0.378,2.676-0.437c0.873-1.017,0.992-2.678,2.084-3.009
			c0.491-0.148,0.896,0.061,1.078,1.364c0.324,3.925-1.425,9.535-6.772,7.612c-4.759-2.165-4.552-11.262-4.534-16.251
			C84.739,41.224,84.611,38.239,83.529,38.906L83.529,38.906z"/>
		<path d="M117.976,32.151c-0.445-1.034-1.154-1.69-2.268-1.647c-2.622,0.207-3.134,0.104-5.585,0.25
			c-2.452,0.146-4.55,0.25-6.295,0.315c0.341-2.999,0.682-6,1.024-9c0.948-8.72,0.99-14.087,0.127-16.102
			c-0.652-1.525-1.697-2.123-3.133-1.792c-2.237,0.414-2.769,4.274-3.015,11.529c-0.117,4.098,0.222,9.289,0.784,16.128
			c-0.534,0.131-2.165,0.604-3.236,0.922c-1.071,0.316-1.925,0.652-2.562,1.007c-0.367,0.181-0.548,0.561-0.547,1.142
			c0.001,0.581,0.167,1.252,0.492,2.015c0.863,2.015,2.199,5.077,4.01,9.187c1.808,4.109,3.027,6.899,3.657,8.371
			c1.096,2.559,2.517,3.806,4.263,3.742c1.406-0.052,2.246-0.25,2.518-0.59c0.274-0.342,0.131-1.167-0.43-2.474
			c-1.538-3.595-2.569-7.153-3.092-10.674c-0.284-1.814-0.426-5.343-0.448-8.385c5.468-1.257,9.219-0.921,12.359-1.755l0.163-0.058
			c1.212-0.762,0.542-0.368,0.962-0.825C118.146,32.997,118.207,32.695,117.976,32.151z M101.489,49.185l-0.157,0.204l-0.251,0.012
			c0,0-0.116-0.229-0.445-0.909c-0.328-0.679-1.553-5.051-1.62-5.126c-0.066-0.076-1.148-4.115-1.273-4.54
			c-0.129-0.427-0.035-0.707-0.035-0.707s0.132-0.322,0.414-0.571c0.281-0.25,1.339-0.578,1.339-0.578l0.211-0.01l0.185,0.345
			l0.127,0.86l0.317,2.148l0.973,6.168l0.327,2.345L101.489,49.185z"/>
		<path fill-rule="evenodd" clip-rule="evenodd" d="M137.08,51.305c-3.387,4.232-8.157,8.077-13.546,6.556
			c-3.066-1.09-5.059-4.104-6.052-7.771c-0.932-3.444-0.981-7.466-0.206-11.012c1.218-5.574,4.585-10.155,8.521-10.202
			c7.395,0.739,11.178,8.918,7.408,14.688c-2.1,3.21-6.45,4.845-8.561,5.856c-0.797,0.383-1.43,0.56-1.322,2.121
			c0.254,3.747,6.599,3.688,10.595-4.573c0.368-0.76,2.864-4.039,4.493-3.055C141.823,45.976,137.498,50.784,137.08,51.305
			L137.08,51.305z M121.56,46.161c4.443-1.421,8.082-5.264,8.414-7.366c0.626-3.972-5.455-7.385-7.701-0.873
			C121.7,39.582,121.545,43.246,121.56,46.161L121.56,46.161z"/>
		<path fill-rule="evenodd" clip-rule="evenodd" d="M166.901,36.699c-0.324,3.338,4.725,20.605,1.094,20.902
			c-2.141,0.176-3.455,0.399-4.018-0.752c-0.533-1.096,1.572-9.982-0.156-7.287c-0.396,0.618-0.32,0.668-0.959,1.813
			c-5.949,10.64-14.019,7.812-18.711-0.843c-2.816-5.193-4.416-12.484-3.613-20.222c1.28-12.345,6.578-28.528,19.037-25.87
			c9.789,2.089,3.049,15.175-0.373,11.831c-8.086-17.72-24.211,25.069-6.369,35.406c5.152,2.986,9.557-6.747,8.5-11.03
			c-0.74-3.01-0.914-3.114-2.41-2.665c-1.162,0.35-5.147,3.765-6.26,2.732c-1.395-1.293-2.147-6.38,0.646-6.528
			c3.232-0.168,5.064,0.881,8.883-3.732c3.471-4.193,6.299-2.941,5.703,1.598C167.634,34.04,167.05,35.172,166.901,36.699
			L166.901,36.699z"/>
		<path fill-rule="evenodd" clip-rule="evenodd" d="M189.831,30.356c-2.012-1.551-6.26-3.39-10.154-2.986
			c-5.432,0.563-10.455,4.217-9.939,9.926c0.221,2.437,0.467,12.842,1.395,17.119c0.318,1.46,1.152,2.826,2.596,3.215
			c1.359,0.366,3.082-0.013,3.74-1.555c0.893-2.09-0.092-4.027-0.598-5.8c-1.029-3.601-1.496-8.616-1.787-11.717
			c-0.6-6.374,9.061-7.247,11.342-3.538c-1.641,2.536,0.736,4.13,3.709,1.827C192.817,34.768,191.741,31.832,189.831,30.356
			L189.831,30.356z"/>
		<path fill-rule="evenodd" clip-rule="evenodd" d="M203.027,58.19c13.371-2.254,18.514-23.045,1.93-30.139
			C187.704,22.462,186.813,61.589,203.027,58.19L203.027,58.19z M196.961,41.423c1.566-16.333,12.313-8.735,13.695,1.907
			C212.031,53.877,194.661,60.194,196.961,41.423L196.961,41.423z"/>
		<path fill-rule="evenodd" clip-rule="evenodd" d="M222.318,36.837c-2.064,4.639-1.252,23.247,8.344,14.431
			c2.092-1.922,2.357-8.097,1.574-13.384c-0.182-1.219-1.211-4.929-1.557-6.046c-0.439-1.426,0.746-3.416,2.549-4.024
			c1.463-0.492,3.111,0.389,3.713,1.818c1,2.382,0.342,6.289,0.234,7.888c-0.318,4.769-1.098,10.637,0.602,13.723
			c0.725,1.318,1.727,1.451,1.762,2.433c0.127,3.511-4.051,5.759-5.639,3.581c-0.424-0.581-0.072-1.541-0.719-1.972
			c-7.889,7.083-16.578,1.529-16.445-8.616c0.029-2.218-0.279-5.837,0.523-8.976c0.625-2.442,1.021-4.77,2.297-6.092
			c1.672-1.208,2.535-0.482,3.068-0.083C223.797,32.397,222.918,35.171,222.318,36.837L222.318,36.837z"/>
		<path fill-rule="evenodd" clip-rule="evenodd" d="M257.594,52.659c1.406-4.784,3.053-12.593,2.002-15.483
			c-1.576-4.331-7.58-5.918-10.543-1.487c-1.818,2.718-1.867,12.447,0.447,18.139c0.553,1.361-0.475,3.259-2.229,3.838
			c-6.602,2.185-1.471-16.109-5.324-21.954c-0.83-1.257-1.842-1.383-1.955-2.321c-0.406-3.35,3.592-5.495,5.352-3.417
			c0.469,0.556,0.193,1.47,0.871,1.883c7.322-6.759,18.219-1.679,18.889,8.001c0.227,3.253-0.725,10.318-2.576,14.791
			c-0.518,1.252-1.107,2.302-1.76,3.007c-1.572,1.152-2.494,0.46-3.059,0.079C256.469,56.896,257.127,54.25,257.594,52.659
			L257.594,52.659z"/>
		<path fill-rule="evenodd" clip-rule="evenodd" d="M286.678,31.367c0.623-5.243-1.574-20.48-5.604-20.864
			c-1.084-0.104-1.34-2.746-0.598-4.314c0.74-1.569,2.48-2.065,5.381-0.867c4.646,1.919,5,19.376,5.094,24.635
			c0.09,5.054-0.156,11.321,0.617,16.109c0.293,1.82,0.799,3.268,1.318,4.446c0.846,1.918,1.689,3.248,1.145,4.333
			c-1.18,2.35-4.777,3.271-6,2.11c-0.848-0.807-1.223-2.263-1.438-3.973c-6.941,11.048-17.957,2.355-19.514-8.27
			C265.578,34.458,274.914,22.559,286.678,31.367L286.678,31.367z M275.832,51.721c8.711,6.311,11.461-10.042,7.119-16.099
			C277.629,28.195,264.148,42.612,275.832,51.721L275.832,51.721z"/>
		<path fill-rule="evenodd" clip-rule="evenodd" fill="#99AE69" d="M21.225,47.99C14.412,45.761,9.55,39.142,8.359,32.207
			C5.073,13.062,25.444-4.212,45.794,5.38c0.24,4.3-1.756,10.419-7.236,12.258c27.201,17.172,3.945,52.35-24.56,40.782
			c-5.203-2.651-2.424-7.499,3.136-4.691c6.209,2.141,14.278,2.141,19.362-0.666c3.279-1.792,6.213-4.243,8.277-7.374
			c0.58-0.88,1.352-2.196,1.963-3.631c0.432-1.015,1.82-5.203,0.742-5.656c-0.27-0.113-0.412,0.207-0.486,0.507
			c-0.688,2.781-2.039,5.188-3.895,7.355c-2.18,2.545-4.93,4.483-8.402,5.749c-4.064,1.481-8.775,1.668-15.253,0.251
			C19.869,49.801,20.727,48.513,21.225,47.99L21.225,47.99z M40.003,7.099c0,0,0.148,0.776,0.184,1.896
			c0.105,3.183-0.76,5.226-3.006,7.468c-0.457,0.458-0.977,0.935-1.555,1.428c7.682,4.776,11.693,15.222,7.234,22.521
			c-6.018,9.836-17.943,7.598-24.458,0.865c-6.821-7.051-5.917-16.172-1.019-22.934C22.438,11.367,31.728,6.861,40.003,7.099
			L40.003,7.099z"/>
		<path fill-rule="evenodd" clip-rule="evenodd" d="M16.851,28.693c1.462-14.597,18.257-17.49,24.503,1.967
			C46.392,50.657,14.536,46.306,16.851,28.693L16.851,28.693z M30.546,38.296c13.264,0.484,6.908-13.081-1.801-16.079
			C20.113,19.247,15.315,38.295,30.546,38.296L30.546,38.296z"/>
		<path fill-rule="evenodd" clip-rule="evenodd" fill="#D8EAC1" d="M30.546,38.296c13.264,0.484,6.908-13.081-1.801-16.079
			C20.113,19.247,15.315,38.295,30.546,38.296L30.546,38.296z"/>
	</g>
</g>
<g id="Layer_2">
</g>
</svg>
